<svg xmlns="http://www.w3.org/2000/svg" width="163" height="45" viewBox="0 0 163 45" fill="none">
  <path d="M0.00158562 32.1385C-0.00766306 31.9551 0.0236328 31.7719 0.0932421 31.6019C0.162851 31.432 0.26906 31.2795 0.404295 31.1554L18.5851 13.0068C18.7566 12.8551 18.937 12.714 19.1254 12.5841L19.037 12.4268H0.0605187V0H44.0541V44.0541H31.6978V17.8045L17.8976 31.5683H26.4527V44.0344H0.00158562V32.1385Z" fill="white"/>
  <path d="M92.5135 39.6486C91.0802 39.6486 89.7254 39.6486 88.3707 39.6486C88.2332 39.6486 88.0467 39.3805 87.978 39.1919C86.9177 36.2402 85.8902 33.2917 84.8954 30.3466C84.7776 30.019 84.6499 29.8601 84.2573 29.8601C79.8788 29.8601 75.5102 29.8601 71.1317 29.8601H70.7685C69.7867 32.4611 68.9228 35.0522 68 37.6432C67.8226 38.051 67.6781 38.4726 67.5681 38.904C67.4503 39.5394 67.087 39.6486 66.5176 39.6287C65.3494 39.6287 64.191 39.6287 62.9344 39.6287C63.0718 39.2118 63.1798 38.8544 63.3074 38.5069C67.2997 27.5471 71.3051 16.5773 75.3236 5.59757C75.3588 5.43038 75.4529 5.28181 75.5884 5.17954C75.7238 5.07727 75.8914 5.02826 76.0599 5.04164C77.13 5.04164 78.2001 5.04164 79.2701 5.04164C79.4359 5.01737 79.6046 5.05698 79.7428 5.1526C79.881 5.24822 79.9786 5.39287 80.0162 5.55786C82.3462 11.9511 84.6827 18.3377 87.0257 24.7178L92.2975 38.9834C92.3662 39.182 92.4252 39.3805 92.5135 39.6486ZM83.3345 26.1175L77.8074 10.5414H77.5718L72.0545 26.1175H83.3345Z" fill="white"/>
  <path d="M134.64 28.0358H115.626C115.626 32.5495 118.146 36.2943 123.076 36.6139C124.341 36.7269 125.615 36.5634 126.811 36.1345C127.624 35.8315 128.361 35.3548 128.972 34.7374C129.582 34.1201 130.051 33.3769 130.347 32.5595L134.231 33.638C133.809 35.073 133.003 36.3647 131.901 37.3728C130.09 39.0213 127.777 40.0068 125.337 40.1689C122.592 40.5242 119.805 40.0073 117.369 38.691C115.203 37.502 113.537 35.5696 112.677 33.2485C111.736 31 111.303 28.5702 111.41 26.1339C111.516 23.6975 112.16 21.3152 113.295 19.1581C114.365 17.1007 116.054 15.4333 118.123 14.3919C120.191 13.3506 122.534 12.9882 124.819 13.3562C126.652 13.4968 128.413 14.1265 129.921 15.1801C131.429 16.2337 132.629 17.6727 133.395 19.3478C134.208 21.1825 134.645 23.1624 134.68 25.1697C134.68 26.1184 134.64 27.0272 134.64 28.0358ZM115.606 24.4807H130.486C130.626 22.6511 130.049 20.8389 128.877 19.4292C127.705 18.0195 126.032 17.1234 124.211 16.9312C119.002 16.4319 115.855 20.3564 115.606 24.4807Z" fill="white"/>
  <path d="M97.5578 17.0256V32.8929C97.5086 33.7715 97.6504 34.6503 97.9735 35.4694C98.2965 36.2886 98.7933 37.0287 99.4299 37.6394C100.316 38.4391 101.375 39.025 102.525 39.3515C103.675 39.6781 104.885 39.7365 106.061 39.5222C106.585 39.4339 107.105 39.3193 107.618 39.179L106.8 35.6192C106.504 35.6192 106.278 35.7172 106.061 35.7368C103.105 36.0605 101.578 35.0994 101.588 32.0201C101.588 27.2344 101.588 22.4389 101.588 17.6532V16.9961V13.6815V7.55225H97.5578V17.0256Z" fill="white"/>
  <path d="M160.168 8.81058C161.732 8.81058 163 7.54263 163 5.97853C163 4.41443 161.732 3.14648 160.168 3.14648C158.604 3.14648 157.336 4.41443 157.336 5.97853C157.336 7.54263 158.604 8.81058 160.168 8.81058Z" fill="white"/>
  <path d="M144.749 13.2163H140.344V39.6487H144.749V13.2163Z" fill="white"/>
  <path d="M92.5135 13.2162V17.6216H101.324V13.2162H92.5135Z" fill="white"/>
  <path d="M162.371 13.2163H157.965V39.6487H162.371V13.2163Z" fill="white"/>
  <path d="M144.749 16.9924H162.371V13.2163H148.682L144.749 16.9924Z" fill="white"/>
  <path d="M101.324 16.9924H108.876V13.2163H105.283L101.324 16.9924Z" fill="white"/>
</svg>